<svg id="Layer_2" data-name="Layer 2" xmlns="http://www.w3.org/2000/svg" viewBox="0 0 347.9 320.66"><defs><style>.cls-1,.cls-2{fill:#fff;}.cls-2{stroke:#fff;stroke-miterlimit:10;stroke-width:6px;}.cls-3{fill:#1869f4;}</style></defs><rect class="cls-1" width="347.9" height="319.04" rx="19.94"/><path class="cls-1" d="M739.74,388.37" transform="translate(-512.33 -207.74)"/><path class="cls-2" d="M739.74,381.82" transform="translate(-512.33 -207.74)"/><path class="cls-3" d="M680.8,441.89c-27.78,0-53.17-9.56-71.49-26.93-18.48-17.52-28.66-42-28.66-68.86s10.19-51.35,28.69-68.86,43.82-26.93,71.72-26.93c31.61,0,58.65,11.67,76.14,32.87l1.8,2.19L728,314l-2-2.33c-11.54-13.26-26-20-42.85-20-32,0-54.42,22.38-54.42,54.42s22.38,54.42,54.42,54.42c17,0,31.37-6.81,42.84-20.23l2-2.37,31,28.64-1.78,2.19C739.54,430.43,713.12,441.89,680.8,441.89Z" transform="translate(-512.33 -207.74)"/><path class="cls-1" d="M681.06,253.31c31,0,56.91,11.28,73.82,31.78L728.23,309.7c-12.05-13.84-27.18-21-45.12-21-33.58,0-57.42,23.58-57.42,57.42s23.84,57.42,57.42,57.42c17.94,0,33.07-7.18,45.12-21.28l26.65,24.61c-16.91,20.76-42.8,32-74.08,32-55.62,0-97.15-38.7-97.15-92.79s41.53-92.79,97.41-92.79m0-6c-28.67,0-54.87,9.86-73.78,27.75-19.1,18.08-29.63,43.31-29.63,71s10.51,52.94,29.59,71c18.88,17.9,45,27.76,73.56,27.76,16.37,0,31.45-2.93,44.81-8.73a88.76,88.76,0,0,0,33.93-25.52l3.56-4.37L759,402.44,732.3,377.83l-4.59-4.22-4.05,4.74c-10.87,12.72-24.51,19.17-40.55,19.17-30.27,0-51.42-21.15-51.42-51.42s21.15-51.42,51.42-51.42c16,0,29.64,6.38,40.59,19l4.06,4.66,4.54-4.19L759,289.5l4.17-3.85-3.61-4.38c-18.07-21.9-45.93-34-78.45-34Z" transform="translate(-512.33 -207.74)"/><circle class="cls-3" cx="169.01" cy="140.94" r="23.9"/><polyline class="cls-3" points="216.39 174.45 150.94 320.66 207.13 320.66 268.1 174.45"/></svg>